<?xml version="1.0" encoding="utf-8"?>
<!-- Generator: Adobe Illustrator 18.0.0, SVG Export Plug-In . SVG Version: 6.00 Build 0)  -->
<!DOCTYPE svg PUBLIC "-//W3C//DTD SVG 1.1//EN" "http://www.w3.org/Graphics/SVG/1.1/DTD/svg11.dtd">
<svg version="1.1" id="Capa_1" xmlns="http://www.w3.org/2000/svg" xmlns:xlink="http://www.w3.org/1999/xlink" x="0px" y="0px"
	 viewBox="0 0 250 100" enable-background="new 0 0 250 100" xml:space="preserve">
<g>
	<g>
		<path d="M70.7,95.3C76.8,82,81.3,68.2,84.3,53.9c1.4-6.6,2.3-13.2,3-19.9c0.6-6,1.6-12.4-1.1-18.1c-0.4-0.8-1.6-0.5-1.8,0.2
			c-3.5,12.4-5.6,25-6.2,37.8c-0.3,5.4-1.9,22.7,6.3,23.6c2.9,0.3,6.8-6.5,8.3-8.3c3.7-4.6,7-9.5,10.1-14.5
			c5.7-9.2,11.4-19.8,11.9-30.8c0.1-1.2-1.6-1.3-2-0.3c-5.9,16.3-9,33.3-9.4,50.7c0,1,1.3,1.3,1.9,0.5c7.8-11.9,13.2-25,18.5-38.1
			c-0.7-0.1-1.3-0.2-2-0.3c-0.2,3.3-1.8,28.5,5.3,26.8c4.3-1,6.8-6.2,9.3-9.4c4.7-6.2,9.4-12.4,14.1-18.6c-0.6-0.2-1.2-0.3-1.9-0.5
			c-0.2,4.7-3.1,36.3,7.6,32.9c6.1-2,15.1-22.1,7.1-24.9c-2.2-0.8-5.4,0.6-7.4,1.2c-4.2,1.3-8.5,2.6-12.8,3.8
			c-8.6,2.4-17.3,4.4-26,6.2C98.6,57.7,79.7,60,60.8,61c0,0.7,0,1.3,0,2c27.2-1.8,54.3-5,81.2-9.6c28.5-4.9,56.7-11.6,84.9-17.7
			c1.3-0.3,0.7-2.2-0.5-1.9c-27,5.8-53.9,12.1-81.1,17c-27.9,5-56.1,8.4-84.4,10.2c-1.3,0.1-1.3,2.1,0,2
			c25.5-1.4,50.8-5.2,75.6-11.5c6.2-1.6,12.3-3.3,18.4-5.2c1.5-0.4,9.4-3.9,9.6,0c0.1,3.1-0.6,6.1-1.6,9c-1.1,3.3-3.1,6.3-5.4,9
			c-3.5,1.4-5.4,0.5-5.6-2.7c-0.6-1.9-0.7-4-0.9-6c-0.6-6.9-0.4-14-0.1-20.9c0-1.1-1.3-1.2-1.9-0.5c-5.5,7.2-11,14.4-16.5,21.7
			c-0.6,0.8-6,8.9-7.4,2.4c-0.6-2.9-0.8-6-1-8.9c-0.3-4.3-0.3-8.6-0.1-12.9c0.1-1.2-1.6-1.2-2-0.3c-5.2,13-10.6,25.9-18.3,37.6
			c0.6,0.2,1.2,0.3,1.9,0.5c0.3-17.2,3.4-34,9.3-50.1c-0.7-0.1-1.3-0.2-2-0.3c-0.4,9.7-5.2,18.5-9.9,26.8c-4.5,8-10,15.5-16.1,22.5
			c-5.5,6.3-6.5-7.1-6.7-10c-0.3-4.9,0.1-10,0.4-14.9c0.8-10.7,2.9-21.3,5.8-31.6c-0.6,0.1-1.2,0.2-1.8,0.2
			c2.6,5.6,1.2,12.9,0.6,18.8c-0.7,7.1-1.9,14.1-3.5,21.1C78.8,69.8,74.5,82.3,69,94.3C68.5,95.4,70.2,96.5,70.7,95.3L70.7,95.3z"/>
	</g>
</g>
</svg>
