<svg id="Capa_1" data-name="Capa 1" xmlns="http://www.w3.org/2000/svg" viewBox="0 0 405.26 616"><defs><style>.cls-1{fill:#f8ab08;}</style></defs><title>joop</title><path class="cls-1" d="M301.5,0V130.92a213.65,213.65,0,0,0-19.85-9.75,198.78,198.78,0,0,0-79-15.8,198.67,198.67,0,0,0-79,15.8A202.48,202.48,0,0,0,15.8,229,198.78,198.78,0,0,0,0,308V616H103.76V485.5a198.74,198.74,0,0,0,81.61,24.43l2.62.2,2.82.17c1.21.07,2.43.12,3.65.16l2.17.08c2,0,4,.09,6,.09a198.78,198.78,0,0,0,79-15.8A202.48,202.48,0,0,0,389.46,387a198.67,198.67,0,0,0,15.8-79V0Zm-7.68,346.49a96.8,96.8,0,0,1-52.7,52.7,100.29,100.29,0,0,1-77,0,96.72,96.72,0,0,1-52.7-52.7,100.29,100.29,0,0,1,0-77,99,99,0,0,1,182.38,77Z"/></svg>