<?xml version="1.0" encoding="utf-8"?>
<!-- Generator: Adobe Illustrator 21.0.2, SVG Export Plug-In . SVG Version: 6.00 Build 0)  -->
<svg version="1.1" id="Capa_1" xmlns="http://www.w3.org/2000/svg" xmlns:xlink="http://www.w3.org/1999/xlink" x="0px" y="0px"
	 viewBox="0 0 200 100" style="enable-background:new 0 0 200 100;" xml:space="preserve">
<g>
	<path d="M34.7,34.9v30.8h-2.3V51.1H11.8v14.6H9.5V34.9h2.3v14.2h20.6V34.9H34.7z"/>
	<path d="M76.8,55.1v10.6h-2.2V55.1L62.2,34.9h2.5L75.8,53l11.1-18.1h2.4L76.8,55.1z"/>
	<path d="M139.6,45.3c0,6.5-4.7,10.3-12.4,10.3h-8.8v10.1h-2.2V34.9h11.1C135,34.9,139.6,38.7,139.6,45.3z M137.2,45.3
		c0-5.3-3.6-8.3-10.2-8.3h-8.8v16.7h8.8C133.8,53.6,137.2,50.6,137.2,45.3z"/>
	<path d="M190.5,63.7v2h-21.2V34.9h20.6v2h-18.4v12.2h16.4V51h-16.4v12.7L190.5,63.7L190.5,63.7z"/>
</g>
</svg>
