<?xml version="1.0" encoding="utf-8"?>
<!-- Generator: Adobe Illustrator 23.0.0, SVG Export Plug-In . SVG Version: 6.00 Build 0)  -->
<svg version="1.1" id="Capa_1" xmlns="http://www.w3.org/2000/svg" xmlns:xlink="http://www.w3.org/1999/xlink" x="0px" y="0px"
	 viewBox="0 0 44.29 28.42" style="enable-background:new 0 0 44.29 28.42;" xml:space="preserve">
<style type="text/css">
	.st0{fill:#FFFFFF;}
	.st1{fill:#DFA12C;}
</style>
<g>
	<polyline class="st0" points="-170.41,15.27 -97.38,15.27 -97.38,123.27 	"/>
	<g>
		<path d="M-170.41,17.77c24.34,0,48.69,0,73.03,0c-0.83-0.83-1.67-1.67-2.5-2.5c0,31.46,0,62.91,0,94.37c0,4.54,0,9.09,0,13.63
			c0,3.22,5,3.22,5,0c0-31.46,0-62.91,0-94.37c0-4.54,0-9.09,0-13.63c0-1.35-1.15-2.5-2.5-2.5c-24.34,0-48.69,0-73.03,0
			C-173.63,12.77-173.64,17.77-170.41,17.77L-170.41,17.77z"/>
	</g>
</g>
<g>
	<line class="st0" x1="-170.41" y1="123.27" x2="-170.41" y2="231.27"/>
	<g>
		<path d="M-172.91,123.27c0,31.51,0,63.02,0,94.52c0,4.49,0,8.98,0,13.48c0,3.22,5,3.22,5,0c0-31.51,0-63.02,0-94.52
			c0-4.49,0-8.98,0-13.48C-167.91,120.06-172.91,120.05-172.91,123.27L-172.91,123.27z"/>
	</g>
</g>
<g>
	<path class="st0" d="M-170.41,123.27c0,20.17,16.35,36.52,36.52,36.52s36.52-16.35,36.52-36.52s-16.35-36.52-36.52-36.52
		S-170.41,103.11-170.41,123.27"/>
	<g>
		<path d="M-172.91,123.27c0.31,16.31,10.23,30.99,25.68,36.66c15.4,5.65,33.18,0.69,43.53-11.99c10.36-12.7,11.68-31.14,3.04-45.12
			c-8.52-13.78-24.89-20.84-40.76-17.84C-159.75,88.45-172.57,104.93-172.91,123.27c-0.06,3.22,4.94,3.22,5,0
			c0.27-14.24,9.01-27.3,22.63-32.07c13.19-4.62,28.08-0.64,37.21,9.93c9.43,10.91,10.77,27.13,3.43,39.49
			c-7.18,12.09-21.59,18.74-35.45,16.11c-16.15-3.07-27.51-17.18-27.82-33.46C-167.97,120.06-172.97,120.05-172.91,123.27
			L-172.91,123.27z"/>
	</g>
</g>
<path class="st1" d="M11.6,12.8c0,3.82-1.98,5.67-5.6,5.67c-6,0-6-3.82-6-7.25h3.51c0,2.84,0.2,4.22,2.21,4.22
	c1.96,0,2.11-1.26,2.11-2.64V0h3.77V12.8z"/>
<g>
	<path class="st1" d="M14.75,13.43c0.07-0.12,0.14-0.25,0.21-0.36c0.14-0.21,0.29-0.41,0.44-0.6c0.08-0.1,0.16-0.2,0.24-0.29
		c0.21-0.22,0.45-0.43,0.69-0.62c0.05-0.04,0.09-0.08,0.14-0.12c0.28-0.2,0.58-0.38,0.9-0.54c0.14-2.5,1.36-3.88,3.46-3.88
		c2.1,0,3.32,1.36,3.47,3.83c0,0.06,0.01,0.11,0.02,0.17l0,0.32c0,0.92-0.15,2.22-0.85,3.15c-0.07,0.09-0.15,0.15-0.23,0.23
		c-0.59,0.61-1.4,0.94-2.41,0.94c-0.95,0-1.73-0.28-2.31-0.83c-0.01-0.01-0.01-0.01-0.02-0.01c-0.05,0.08-0.07,0.17-0.11,0.25
		c-0.04,0.09-0.09,0.18-0.12,0.27c-0.05,0.14-0.09,0.29-0.13,0.43c-0.02,0.09-0.05,0.18-0.07,0.27c-0.03,0.16-0.05,0.33-0.07,0.49
		c-0.01,0.07-0.02,0.14-0.03,0.21c-0.02,0.23-0.03,0.45-0.03,0.64v0.16c0,0,0.01,0,0.01,0c1.76,0.76,4.24,0.73,6.04-0.1
		c1.38-0.68,2.4-1.8,2.95-3.23c0.32-0.88,0.49-1.85,0.49-2.88c0-5-3.55-6.77-6.58-6.77c-3.03,0-6.56,1.77-6.56,6.77
		c0,0.86,0.1,1.66,0.31,2.37C14.63,13.62,14.69,13.53,14.75,13.43z"/>
	<path class="st1" d="M27.14,15.05c-0.05,0.09-0.11,0.18-0.16,0.27c-0.07,0.12-0.14,0.24-0.21,0.35c-0.14,0.21-0.29,0.41-0.45,0.6
		c-0.08,0.1-0.16,0.19-0.24,0.28c-0.21,0.22-0.44,0.43-0.69,0.62c-0.05,0.04-0.09,0.09-0.14,0.12c-0.28,0.21-0.57,0.39-0.89,0.56
		c-0.14,2.49-1.37,3.86-3.48,3.86c-2.08,0-3.29-1.32-3.43-3.73h-0.01l-0.02-0.6c0-0.92,0.15-2.22,0.85-3.15
		c0.07-0.09,0.15-0.15,0.23-0.23c0.58-0.61,1.39-0.94,2.39-0.94c0.97,0,1.75,0.28,2.33,0.83c0.04-0.08,0.09-0.15,0.13-0.23
		c0.04-0.09,0.09-0.18,0.13-0.28c0.05-0.14,0.09-0.28,0.13-0.43c0.02-0.09,0.05-0.18,0.07-0.27c0.03-0.16,0.05-0.32,0.07-0.48
		c0.01-0.07,0.02-0.15,0.03-0.22c0.02-0.23,0.03-0.45,0.03-0.64V11.2c-0.89-0.38-1.89-0.58-2.92-0.58c-1.15,0-2.2,0.23-3.12,0.68
		c0,0,0,0,0,0c0,0,0,0,0,0c-1.4,0.64-2.41,1.76-2.94,3.22c-0.32,0.86-0.49,1.82-0.49,2.86c0,5,3.53,6.77,6.56,6.77
		c3.03,0,6.56-1.77,6.56-6.77C27.44,16.55,27.34,15.77,27.14,15.05z"/>
</g>
<path class="st1" d="M34.22,28.42h-3.77V10.4h8.23c3.49,0,5.6,2.23,5.6,5.77c0,1.63-0.9,5.75-5.75,5.75h-4.32V28.42z M37.71,18.81
	c2.81,0,2.81-2.01,2.81-2.81c0-1.76-0.98-2.49-3.31-2.49h-2.99v5.3H37.71z"/>
<path d="M69.13,15.72c0,1.82-0.95,2.71-2.67,2.71c-2.87,0-2.87-1.82-2.87-3.47h1.68c0,1.35,0.1,2.01,1.05,2.01
	c0.94,0,1.01-0.6,1.01-1.26V9.6h1.8V15.72z"/>
<path d="M74.54,9.37c1.14,0,4.14,0.49,4.14,4.53c0,4.04-3,4.53-4.14,4.53c-1.14,0-4.14-0.49-4.14-4.53
	C70.41,9.86,73.41,9.37,74.54,9.37z M74.54,16.92c0.97,0,2.34-0.6,2.34-3.01s-1.37-3.01-2.34-3.01c-0.97,0-2.34,0.6-2.34,3.01
	S73.57,16.92,74.54,16.92z"/>
<path d="M74.66,13.63c1.14,0,4.14,0.49,4.14,4.53s-3,4.53-4.14,4.53c-1.14,0-4.14-0.49-4.14-4.53S73.52,13.63,74.66,13.63z
	 M74.66,21.17c0.97,0,2.34-0.6,2.34-3.01s-1.37-3.01-2.34-3.01c-0.97,0-2.34,0.6-2.34,3.01S73.69,21.17,74.66,21.17z"/>
<path d="M82.04,22.47h-1.8v-8.61h3.93c1.67,0,2.67,1.07,2.67,2.76c0,0.78-0.43,2.75-2.75,2.75h-2.06V22.47z M83.7,17.87
	c1.34,0,1.34-0.96,1.34-1.34c0-0.84-0.47-1.19-1.58-1.19h-1.43v2.53H83.7z"/>
</svg>
