<?xml version="1.0" encoding="utf-8"?>
<!-- Generator: Adobe Illustrator 21.0.2, SVG Export Plug-In . SVG Version: 6.00 Build 0)  -->
<svg version="1.1" id="Capa_1" xmlns="http://www.w3.org/2000/svg" xmlns:xlink="http://www.w3.org/1999/xlink" x="0px" y="0px"
	 viewBox="0 0 30 30" style="enable-background:new 0 0 30 30;" xml:space="preserve">
<style type="text/css">
	.st0{fill:#FFFFFF;}
</style>
<g>
	<g>
		<g>
			<path class="st0" d="M11.3,22.8C5.1,22.8,0,17.8,0,11.5S5.1,0.2,11.3,0.2s11.3,5.1,11.3,11.3S17.6,22.8,11.3,22.8z M11.3,2
				c-5.2,0-9.5,4.3-9.5,9.5S6.1,21,11.3,21s9.5-4.3,9.5-9.5S16.6,2,11.3,2z"/>
		</g>
		<g>
			<path class="st0" d="M4.6,8c-0.1,0-0.2,0-0.2,0C4.2,7.8,4.1,7.5,4.3,7.3c1.5-2.5,4.2-4,7.1-4c0.3,0,0.5,0.2,0.5,0.5
				c0,0.3-0.2,0.5-0.5,0.5c-2.6,0-5,1.4-6.3,3.6C5,7.9,4.8,8,4.6,8z"/>
		</g>
		<g>
			<path class="st0" d="M3.6,11.7c-0.3,0-0.5-0.2-0.5-0.5c0-0.6,0.1-1,0.2-1.6c0-0.2,0.3-0.4,0.6-0.3c0.2,0,0.4,0.3,0.3,0.6
				C4.1,10.4,4,10.7,4,11.2C4,11.5,3.8,11.7,3.6,11.7z"/>
		</g>
		<g>
			<path class="st0" d="M27.2,29.8c-0.7,0-1.4-0.3-1.9-0.8l-7.5-7.5c-0.6-0.6-0.8-1.3-0.6-2c0.2-0.6,0.6-1.1,1-1.4
				c0.6-0.6,1.2-1.1,2-1.1c0.4,0,0.9,0.1,1.4,0.6l7.5,7.5c0.5,0.5,0.8,1.2,0.8,1.9c0,0.7-0.3,1.4-0.8,1.9
				C28.6,29.6,27.9,29.8,27.2,29.8z M19,20.1C19,20.1,19,20.2,19,20.1l7.5,7.5c0.4,0.4,1,0.4,1.3,0c0.2-0.2,0.3-0.4,0.3-0.6
				s-0.1-0.5-0.3-0.6l-7.5-7.5c0,0-0.1-0.1-0.1-0.1c0,0-0.2,0-0.7,0.6C19,19.9,19,20.1,19,20.1L19,20.1z"/>
		</g>
	</g>
</g>
<g>
	<text transform="matrix(1 0 0 1 221.1377 396)"><tspan x="0" y="0" style="font-family:'MyriadPro-Regular'; font-size:12px;">&lt;!-- edit perfil --&gt;</tspan><tspan x="-468.5" y="28.8" style="font-family:'MyriadPro-Regular'; font-size:12px;">      &lt;a href=&quot;perfil_empresa1_edit.html&quot; class=&quot;profile_edit&quot;&gt;&lt;i class=&quot;fa fa-pencil-square-o&quot; style=&quot;&quot;&gt;&lt;/i&gt;&lt;/a&gt;</tspan><tspan x="29.6" y="57.6" style="font-family:'MyriadPro-Regular'; font-size:12px;">    &lt;!-- // --&gt;</tspan></text>
</g>
</svg>
